<svg xmlns="http://www.w3.org/2000/svg" width="134" height="40" viewBox="0 0 134 40"><defs><linearGradient id="a" x1="61.745%" x2="24.998%" y1="4.96%" y2="71.909%"><stop offset="0%" stop-color="#00A0FF"/><stop offset=".66%" stop-color="#00A1FF"/><stop offset="26.01%" stop-color="#00BEFF"/><stop offset="51.22%" stop-color="#00D2FF"/><stop offset="76.04%" stop-color="#00DFFF"/><stop offset="100%" stop-color="#00E3FF"/></linearGradient><linearGradient id="b" x1="107.586%" x2="-130.492%" y1="50.016%" y2="50.016%"><stop offset="0%" stop-color="#FFE000"/><stop offset="40.87%" stop-color="#FFBD00"/><stop offset="77.54%" stop-color="orange"/><stop offset="100%" stop-color="#FF9C00"/></linearGradient><linearGradient id="c" x1="86.238%" x2="-50.131%" y1="87.873%" y2="186.635%"><stop offset="0%" stop-color="#FF3A44"/><stop offset="100%" stop-color="#C31162"/></linearGradient><linearGradient id="d" x1="-18.801%" x2="42.094%" y1="-63.89%" y2="-19.803%"><stop offset="0%" stop-color="#32A071"/><stop offset="6.85%" stop-color="#2DA771"/><stop offset="47.62%" stop-color="#15CF74"/><stop offset="80.09%" stop-color="#06E775"/><stop offset="100%" stop-color="#00F076"/></linearGradient></defs><g fill="none" fill-rule="evenodd"><rect width="134" height="40" fill="#000" rx="3" transform="matrix(1 0 0 -1 0 40)"/><path fill="#FFF" stroke="#FFF" stroke-width=".625" d="M48 10.233c0 .8-.247 1.44-.735 1.917-.56.565-1.29.85-2.183.85-.855 0-1.584-.29-2.183-.86-.6-.579-.899-1.29-.899-2.14 0-.85.3-1.561.899-2.135.599-.576 1.328-.865 2.183-.865a3.2 3.2 0 0 1 1.218.243c.385.159.7.374.927.64l-.517.505c-.397-.454-.937-.677-1.628-.677-.624 0-1.164.21-1.623.635-.454.426-.681.977-.681 1.654 0 .677.227 1.233.681 1.66.459.419 1 .634 1.623.634.661 0 1.218-.215 1.657-.64.289-.28.453-.668.497-1.164h-2.154V9.8h2.873c.035.15.045.294.045.434zm4-2.496h-3.117v1.901h2.81v.724h-2.81v1.901H52V13h-4V7h4zM55.374 13h-.75V7.737H53V7h4v.737h-1.626V13zm4.817 0V7h.617v6zm4.18 0h-.742V7.737H62V7h4v.737h-1.629z"/><path fill="#FFF" fill-rule="nonzero" stroke="#FFF" stroke-width=".625" d="M74.14 12.13c-.575.58-1.288.87-2.138.87-.854 0-1.567-.29-2.142-.87-.574-.579-.86-1.29-.86-2.13 0-.84.286-1.551.86-2.13.575-.58 1.288-.87 2.142-.87.846 0 1.558.29 2.133.874.58.584.865 1.29.865 2.126 0 .84-.286 1.551-.86 2.13zm-3.725-.48c.433.429.96.644 1.587.644.623 0 1.154-.215 1.583-.644.431-.43.65-.981.65-1.65 0-.669-.219-1.22-.65-1.65a2.153 2.153 0 0 0-1.583-.644c-.627 0-1.154.215-1.587.644-.431.43-.65.981-.65 1.65 0 .669.219 1.22.65 1.65z"/><path fill="#FFF" stroke="#FFF" stroke-width=".625" d="M76 13V7h1.014l3.152 4.666h.036l-.036-1.153V7H81v6h-.87l-3.301-4.897h-.037l.037 1.159V13H76z"/><path fill="#FFF" fill-rule="nonzero" d="M68.165 21.698c-2.355 0-4.278 1.784-4.278 4.246 0 2.441 1.923 4.244 4.278 4.244 2.36 0 4.284-1.803 4.284-4.244 0-2.462-1.924-4.246-4.284-4.246zm0 6.818c-1.292 0-2.403-1.061-2.403-2.572 0-1.531 1.111-2.574 2.403-2.574s2.409 1.043 2.409 2.574c0 1.51-1.117 2.572-2.409 2.572zm-9.335-6.818c-2.36 0-4.279 1.784-4.279 4.246 0 2.441 1.919 4.244 4.279 4.244 2.359 0 4.278-1.803 4.278-4.244 0-2.462-1.92-4.246-4.278-4.246zm0 6.818c-1.293 0-2.409-1.061-2.409-2.572 0-1.531 1.116-2.574 2.409-2.574 1.292 0 2.404 1.043 2.404 2.574 0 1.51-1.112 2.572-2.404 2.572zM47.72 23v1.804h4.328c-.127 1.008-.465 1.75-.984 2.266-.632.624-1.616 1.316-3.344 1.316-2.663 0-4.748-2.14-4.748-4.79 0-2.652 2.085-4.792 4.748-4.792 1.44 0 2.488.56 3.261 1.286l1.277-1.271C51.178 17.79 49.74 17 47.721 17 44.07 17 41 19.958 41 23.594s3.07 6.594 6.721 6.594c1.974 0 3.457-.644 4.622-1.851 1.194-1.19 1.567-2.861 1.567-4.211 0-.42-.035-.805-.098-1.127h-6.09zm45.425 1.399c-.352-.95-1.439-2.7-3.652-2.7-2.193 0-4.019 1.72-4.019 4.246 0 2.378 1.807 4.244 4.23 4.244 1.959 0 3.09-1.189 3.554-1.881l-1.454-.965c-.485.706-1.145 1.174-2.1 1.174-.949 0-1.63-.433-2.066-1.286l5.704-2.35-.197-.482zm-5.815 1.413c-.049-1.637 1.277-2.475 2.227-2.475.745 0 1.376.37 1.587.9l-3.814 1.575zm-4.636 4.119h1.875V17.453h-1.875V29.93zm-3.07-7.287h-.063c-.42-.496-1.224-.945-2.242-.945-2.135 0-4.088 1.866-4.088 4.26 0 2.379 1.953 4.23 4.088 4.23 1.018 0 1.821-.453 2.242-.964h.063v.609c0 1.623-.871 2.495-2.276 2.495-1.145 0-1.856-.823-2.15-1.516l-1.63.678c.47 1.125 1.715 2.51 3.78 2.51 2.198 0 4.053-1.288 4.053-4.42v-7.624h-1.777v.687zm-2.144 5.873c-1.292 0-2.374-1.076-2.374-2.559 0-1.496 1.082-2.587 2.374-2.587 1.273 0 2.277 1.091 2.277 2.587 0 1.483-1.004 2.56-2.277 2.56zm24.443-11.063H97.44V29.93h1.87v-4.728h2.614c2.077 0 4.113-1.496 4.113-3.875 0-2.378-2.041-3.874-4.113-3.874zm.049 6.014H99.31v-4.279h2.663c1.396 0 2.193 1.155 2.193 2.139 0 .966-.797 2.14-2.193 2.14zm11.558-1.793c-1.35 0-2.755.594-3.333 1.91l1.66.693c.356-.693 1.013-.917 1.707-.917.97 0 1.954.58 1.97 1.604v.131c-.34-.195-1.064-.483-1.955-.483-1.787 0-3.608.98-3.608 2.808 0 1.672 1.464 2.748 3.11 2.748 1.258 0 1.952-.565 2.388-1.222h.064v.964h1.806v-4.786c0-2.212-1.66-3.45-3.809-3.45zm-.225 6.837c-.612 0-1.464-.302-1.464-1.056 0-.966 1.063-1.337 1.983-1.337.823 0 1.21.181 1.71.42a2.266 2.266 0 0 1-2.23 1.973zm10.614-6.564l-2.15 5.409h-.064l-2.222-5.409h-2.016l3.339 7.559-1.905 4.206h1.953L126 21.947h-2.08zm-16.855 7.983h1.875V17.453h-1.875V29.93z"/><g fill-rule="nonzero"><path fill="url(#a)" d="M1.694 25.543c-.295-.3-.466-.767-.466-1.37V2.62c0-.604.17-1.07.466-1.37l.073-.066 12.458 12.072v.285L1.767 25.613l-.073-.07z" transform="matrix(1 0 0 -1 8 33)"/><path fill="url(#b)" d="M4.55.704L.402 4.73v.285l4.153 4.026.093-.053 4.919-2.712c1.403-.77 1.403-2.037 0-2.812L4.648.756 4.55.704z" transform="matrix(1 0 0 -1 21.823 24.473)"/><path fill="url(#c)" d="M17.214 9.283L12.968 13.4.438 1.251c.466-.475 1.226-.532 2.09-.057l14.686 8.09" transform="matrix(1 0 0 -1 9.257 33)"/><path fill="url(#d)" d="M17.214 4.116l-14.686 8.09c-.864.47-1.624.412-2.09-.063L12.967 0l4.246 4.116z" transform="matrix(1 0 0 -1 9.257 19.6)"/></g></g></svg>